<svg width="28" height="28" viewBox="0 0 28 28" fill="none" xmlns="http://www.w3.org/2000/svg">
<g clip-path="url(#clip0_21_37)">
<path d="M10.5004 0.485333C10.6713 0.692914 10.7759 0.946953 10.8009 1.21463C10.8258 1.4823 10.77 1.75131 10.6404 1.9869C9.62866 3.84456 9.10026 5.92683 9.10388 8.04214C9.10388 15.0792 14.8406 20.7774 21.9109 20.7774C22.8331 20.7774 23.7311 20.6812 24.5938 20.4974C24.8582 20.4402 25.1337 20.4621 25.3858 20.5604C25.638 20.6588 25.8555 20.8292 26.0113 21.0504C26.1758 21.2805 26.2596 21.5584 26.2498 21.8411C26.24 22.1237 26.1371 22.3951 25.957 22.6133C24.5845 24.2993 22.8529 25.6578 20.8885 26.5897C18.9243 27.5217 16.7768 28.0035 14.6026 28C6.53478 28 0 21.5001 0 13.4919C0 7.46463 3.69966 2.29492 8.96737 0.103818C9.22978 -0.00708119 9.52108 -0.0298426 9.79751 0.0389524C10.074 0.107747 10.3206 0.264385 10.5004 0.485333Z" fill="black"/>
<path d="M18.8893 5.50826C18.9145 5.43247 18.9628 5.36651 19.0276 5.31977C19.0923 5.27303 19.17 5.24786 19.2498 5.24786C19.3298 5.24786 19.4075 5.27303 19.4723 5.31977C19.537 5.36651 19.5853 5.43247 19.6103 5.50826L20.2878 7.54185C20.5905 8.44838 21.301 9.15892 22.2075 9.46167L24.2412 10.139C24.317 10.164 24.3828 10.2124 24.4297 10.2771C24.4764 10.3418 24.5014 10.4196 24.5014 10.4995C24.5014 10.5793 24.4764 10.6571 24.4297 10.7218C24.3828 10.7865 24.317 10.8349 24.2412 10.86L22.2075 11.5373C21.7604 11.6862 21.3542 11.9373 21.021 12.2705C20.6876 12.6037 20.4367 13.01 20.2878 13.4571L19.6103 15.4907C19.5853 15.5665 19.537 15.6324 19.4723 15.6792C19.4075 15.7259 19.3298 15.7511 19.2498 15.7511C19.17 15.7511 19.0923 15.7259 19.0276 15.6792C18.9628 15.6324 18.9145 15.5665 18.8893 15.4907L18.2121 13.4571C18.0632 13.01 17.812 12.6037 17.4789 12.2705C17.1456 11.9373 16.7394 11.6862 16.2923 11.5373L14.2587 10.86C14.1829 10.8349 14.1169 10.7865 14.0702 10.7218C14.0235 10.6571 13.9983 10.5793 13.9983 10.4995C13.9983 10.4196 14.0235 10.3418 14.0702 10.2771C14.1169 10.2124 14.1829 10.164 14.2587 10.139L16.2923 9.46167C16.7394 9.31271 17.1456 9.06167 17.4789 8.72844C17.812 8.3952 18.0632 7.98894 18.2121 7.54185L18.8893 5.50826ZM24.2604 0.172285C24.2776 0.122454 24.31 0.0792437 24.353 0.0486623C24.3959 0.018081 24.4473 0.00164795 24.5002 0.00164795C24.5529 0.00164795 24.6043 0.018081 24.6472 0.0486623C24.6902 0.0792437 24.7226 0.122454 24.7399 0.172285L25.1914 1.52684C25.3927 2.13237 25.8669 2.60664 26.4724 2.80789L27.8269 3.25941C27.8768 3.2767 27.92 3.30907 27.9507 3.35203C27.9813 3.395 27.9976 3.44643 27.9976 3.49917C27.9976 3.55192 27.9813 3.60335 27.9507 3.64631C27.92 3.68928 27.8768 3.72165 27.8269 3.73894L26.4724 4.19046C26.1741 4.28972 25.9028 4.45719 25.6806 4.67957C25.4581 4.90194 25.2907 5.1731 25.1914 5.47151L24.7399 6.82606C24.7226 6.87589 24.6902 6.91911 24.6472 6.94968C24.6043 6.98027 24.5529 6.99671 24.5002 6.99671C24.4473 6.99671 24.3959 6.98027 24.353 6.94968C24.31 6.91911 24.2776 6.87589 24.2604 6.82606L23.8088 5.47151C23.7095 5.1731 23.5421 4.90194 23.3198 4.67957C23.0974 4.45719 22.8261 4.28972 22.5278 4.19046L21.1733 3.73894C21.1234 3.72165 21.0802 3.68928 21.0495 3.64631C21.0191 3.60335 21.0026 3.55192 21.0026 3.49917C21.0026 3.44643 21.0191 3.395 21.0495 3.35203C21.0802 3.30907 21.1234 3.2767 21.1733 3.25941L22.5278 2.80789C23.1333 2.60664 23.6075 2.13237 23.8088 1.52684L24.2604 0.174035V0.172285Z" fill="black"/>
</g>
<defs>
<clipPath id="clip0_21_37">
<rect width="28" height="28" fill="white"/>
</clipPath>
</defs>
</svg>
